@startuml
'https://plantuml.com/class-diagram

class Client
class Abstraction{
    - internal : Implementation
    + operation()
}
class Refined_Abstraction{
    - internal : Implementation
    + operation()
}
interface Implementation{
    + method()
}
class Concrete_Implementation{
    + operation()
}

Client --> Abstraction
Refined_Abstraction --|> Abstraction
Abstraction --> Implementation
Concrete_Implementation --|> Implementation

@enduml